<?xml version="1.0" encoding="utf-8"?>
<!-- Generator: Adobe Illustrator 19.0.0, SVG Export Plug-In . SVG Version: 6.00 Build 0)  -->
<svg version="1.1" id="圖層_1" xmlns="http://www.w3.org/2000/svg" xmlns:xlink="http://www.w3.org/1999/xlink" x="0px" y="0px"
	 width="110px" height="115px" viewBox="0 0 110 115" style="enable-background:new 0 0 110 115;" xml:space="preserve">
<style type="text/css">
	.st0{fill:#FFFFFF;}
	.st1{fill:#77BC1F;}
</style>
<g id="XMLID_771_">
	<g id="XMLID_811_">
		<g id="XMLID_853_">
			<path id="XMLID_854_" class="st0" d="M47.5,114.9c-0.7,0-1.5-0.6-2.4-1.4l-0.1-0.1c-0.8-0.7-4-3-4.3-3.1c-0.1,0-0.4-0.3-1-0.7
				c-1.3-0.9-3.8-2.6-4.5-3.1c-1-0.6-4-3-4.6-3.5l-0.1-0.1c-0.6-0.5-1.5-1.3-3.2-2c-1.2-0.5-2.7-1.6-3.8-2.4
				c-0.7-0.5-1.2-0.9-1.7-1.1c-0.9-0.5-5-3.3-7.1-4.8c-0.6-0.4-1.1-0.7-1.3-0.9c-0.2-0.2-0.7-0.4-1.2-0.8c-1.6-1-4.3-2.6-6.5-4.4
				c-2.5-2-3.9-2.8-4.8-3.2c-0.1-0.1-0.3-0.1-0.4-0.2c-0.9-0.5-0.4-2.2-0.2-2.6c-0.1-1.6,2.1-3.2,2.2-3.2c0.2-0.1,0.3-0.1,0.6-0.1
				c0.6,0,1.6,0.3,2.2,0.8c0.6,0.6,8.9,6.3,9.8,6.6l0,0c0.5,0,0.8,0.2,1,0.4c0.2,0.2,3.8,3.2,3.8,3.3l1.6,1.2
				c-0.2-2.9-1.1-13.4-1.2-13.8c0,0-0.4-3.4-0.2-3.8c0.1-0.2,0-1.7-0.1-2.4c-0.1-0.6-0.5-6.6-0.5-7.5c0-0.2,0-0.9-0.1-1.7
				c-0.2-2.8-0.3-5.3-0.1-6c0.1-0.3,0.3-0.7,0.8-0.7c0.1,0,0.1,0,0.2,0c0.1,0,0.3,0,0.4-0.1c0.2-0.2,0.6-0.3,0.9-0.3
				c0.3,0,0.5,0.1,0.6,0.1c0.1,0,0.3,0,0.4,0c1.3,0,2.6,0.8,3,1.3c0.1,0.2,0.2,0.4,0.1,0.5c-0.1,0.3,0,3.1,0.1,4
				c0.1,0.9,0.5,4.7,0.5,5.4c0,0.3,0,0.9,0,1.6c0,1.2,0,2.7,0.1,3.5c0.1,0.7,0.2,3.1,0.4,5.5c0.1,2,0.3,4,0.3,4.3
				c0,0.2,0.1,0.7,0.1,1.3c0.1,1.8,0.3,4.7,0.8,7.2c0.3,1.8,0.3,2.7,0.3,3.2c0.2,0,0.3,0,0.6-0.1c0.5-0.1,1.6-0.2,1.8-0.3
				c0.4-0.3,1.1-0.6,1.2-0.6c0.2,0,0.5-0.1,1-0.2c1.1-0.2,2.9-0.6,3.6-1c0.8-0.3,2-0.6,3-0.8c0.5-0.1,1-0.2,1.2-0.3
				c0.6-0.2,8.5-2.2,9.3-2.3c0.3-0.1,1.5-0.3,2.9-0.5c2.2-0.4,5-0.9,6.1-1.1c0.7-0.1,1.3-0.2,1.9-0.2c0.9,0,1.6-0.1,2-0.5
				c0.5-0.4,1.1-0.4,1.5,0.1c0.3,0.4,0.5,1,0.5,1.6c0,0.5,0.2,1.1,0.5,1.6c0.2,0.4,0.4,0.7,0.4,1c0,1-2.9,1.7-3.3,1.8
				c-0.4,0.1-1.5,0.4-2.7,0.7c-1.7,0.5-3.5,1-4.1,1c-0.4,0-1.7,0.4-3,0.8C51,92.4,49,93,48,93.1c-1.1,0.1-2.3,0.4-3.4,0.7
				c-0.7,0.2-1.4,0.4-1.9,0.5c-1.3,0.3-7.8,1.9-9.7,2.5c2.5,1.6,13.7,8.9,14.4,9.3c0.1,0.1,0.3,0.2,0.6,0.4c2.5,1.5,3,1.9,3.1,2.2
				l0,0.1l0,0.1c0,0.1,0,0.2,0.1,0.2c0.2,0.6,0.7,1.9-0.7,2.9c-0.7,0.5-1.2,1.2-1.7,1.7C48.3,114.4,47.9,114.9,47.5,114.9z
				 M3.1,77.8c-0.2,0-0.2,0-0.2,0c-0.5,0.4-2,1.7-1.9,2.7l0,0.1l0,0.1c-0.2,0.7-0.4,1.7-0.1,1.9c0.1,0.1,0.2,0.1,0.4,0.2
				c0.9,0.5,2.3,1.2,4.9,3.3c2.2,1.8,4.9,3.4,6.4,4.3c0.6,0.3,1,0.6,1.3,0.8c0.2,0.1,0.7,0.5,1.3,0.9c2.2,1.5,6.2,4.2,7.1,4.7
				c0.4,0.3,1,0.7,1.7,1.1c1.2,0.8,2.6,1.8,3.7,2.3c1.7,0.8,2.8,1.7,3.3,2.1l0.1,0.1c0.5,0.4,3.5,2.9,4.5,3.5
				c0.8,0.4,3.1,2.1,4.6,3.1c0.5,0.3,0.9,0.6,0.9,0.6c0.3,0.2,3.5,2.4,4.4,3.2l0.1,0.1c0.7,0.6,1.4,1.2,1.9,1.2
				c0.2,0,0.5-0.4,0.8-0.8c0.4-0.6,1-1.3,1.8-1.9c0.9-0.7,0.6-1.6,0.4-2.2c-0.1-0.2-0.1-0.4-0.1-0.5c-0.4-0.4-2.1-1.4-2.8-1.8
				c-0.3-0.2-0.5-0.3-0.6-0.4c-0.1-0.1-14.7-9.5-14.9-9.7L32,96.8l0-0.2c0.1-0.2,0.1-0.3,4.9-1.6c2.5-0.7,5-1.3,5.7-1.4
				c0.6-0.1,1.2-0.3,1.9-0.5c1.1-0.3,2.3-0.6,3.5-0.7c1-0.1,3-0.7,4.7-1.2c1.7-0.5,2.7-0.8,3.1-0.8c0.5,0,2.4-0.6,4-1
				c1.3-0.4,2.4-0.7,2.8-0.7c1.1-0.2,2.7-0.8,2.8-1.1c0-0.1-0.2-0.4-0.3-0.7c-0.3-0.5-0.6-1.2-0.5-1.9c0-0.4-0.1-0.8-0.3-1.1
				c-0.1-0.1-0.4-0.3-0.6,0c-0.6,0.5-1.4,0.6-2.4,0.6c-0.5,0-1.2,0.1-1.8,0.2c-1.1,0.2-3.9,0.7-6.1,1.1c-1.4,0.3-2.6,0.5-2.9,0.6
				c-0.9,0.2-8.7,2.1-9.2,2.3c-0.2,0.1-0.6,0.2-1.3,0.3c-0.9,0.2-2.2,0.4-2.8,0.7c-0.9,0.4-2.6,0.8-3.8,1c-0.4,0.1-0.8,0.2-0.9,0.2
				c0,0-0.6,0.2-1,0.5c-0.3,0.2-1.1,0.3-2.1,0.5c-0.3,0-0.5,0.1-0.7,0.1c-0.1,0-0.1,0-0.2,0c-0.1,0-0.2-0.1-0.3-0.1
				c-0.1-0.1-0.1-0.3-0.1-0.6c0-0.4,0.1-1.3-0.3-3.1c-0.4-2.5-0.7-5.5-0.8-7.2c0-0.6-0.1-1.1-0.1-1.3c0-0.3-0.2-2.2-0.3-4.4
				c-0.2-2.3-0.3-4.8-0.4-5.5c-0.1-0.8-0.1-2.3-0.1-3.5c0-0.7,0-1.3,0-1.6c0-0.7-0.4-4.6-0.5-5.4c-0.1-0.7-0.3-3.6-0.1-4.3
				c-0.1-0.3-1.3-1.1-2.5-1.1c-0.1,0-0.3,0-0.4,0l-0.1,0l-0.1,0c0,0-0.2-0.1-0.5-0.1c-0.2,0-0.4,0.1-0.5,0.2
				c-0.2,0.2-0.6,0.2-0.9,0.2c0,0-0.1,0-0.1,0c0,0-0.1,0-0.2,0.2c-0.2,0.6,0,3.9,0.1,5.7c0,0.8,0.1,1.5,0.1,1.7
				c0,0.9,0.4,6.9,0.5,7.4c0,0,0.2,2.3,0.1,2.7c-0.1,0.3,0.2,2.8,0.3,3.5c0.1,0.6,1.2,14,1.3,14.6l0.1,0.7l-2.8-2.1
				c-0.2-0.1-3.6-3.1-3.9-3.3c-0.2-0.2-0.3-0.3-0.6-0.3l-0.1,0c-0.8,0-10.1-6.7-10.2-6.8C4.4,78,3.6,77.8,3.1,77.8z"/>
		</g>
		<g id="XMLID_849_">
			<path id="XMLID_850_" class="st0" d="M101.7,40L101.7,40c-0.2,0-0.3,0-0.4,0c-0.5-0.1-1-0.6-1.1-0.7c-0.4-0.3-0.9-0.9-1-1.2
				c-0.4-0.5-4.5-4.9-7.8-8.5c-2.6-2.8-4.9-5.3-5.1-5.6c-0.6-0.7-3.4-3.9-3.8-4.3c-0.3-0.4-4.1-4.6-4.3-5c-0.1-0.2-1-1.2-1.7-2
				c-1.3-1.5-2.1-2.4-2.3-2.7c-0.2-0.2-0.8-1-1.4-1.7c-0.8-0.9-1.3-1.5-1.4-1.7c-0.2-0.3-0.5-0.6-1-0.9c-0.6-0.3-0.5-2-0.4-3
				c0-0.4,0.9-0.9,1.6-1.2c0.5-0.3,1-0.5,1.3-0.7c0.3-0.2,0.5-0.3,0.7-0.4c0.1,0,0.2-0.1,0.3-0.1c0.7,0,1.2,1,1.3,1.3
				c0.1,0.1,0.8,1.1,1.4,1.9c0.9,1.1,1.8,2.4,2.2,3c0.3,0.5,1.5,1.9,2.6,3c1.4,1.5,2,2.2,2.1,2.5c0.3,0.5,5.3,6,8.7,9.6
				c0.2,0.1,1.2,1,1.9,2.1c0.6,1.1,7.9,8.4,8.8,9.3c0.5,0.5,1.9,1.8,2.3,2.1c0.4,0.3,0.6,0.7,0.6,1.3c0,1.1-0.8,2.3-1,2.5
				c-0.1,0-0.2,0.2-0.3,0.3c-0.3,0.3-0.6,0.6-0.9,0.8C103.1,39.9,102.2,40,101.7,40z M70.4,2.7c-0.1,1.1,0,2.1,0.1,2.3
				c0.4,0.3,0.9,0.6,1.2,1.1c0.1,0.2,0.8,0.9,1.4,1.6c0.7,0.8,1.3,1.5,1.5,1.8c0.2,0.2,1.3,1.6,2.2,2.6c1,1.2,1.7,1.9,1.8,2.1
				c0.2,0.3,3.8,4.5,4.3,5c0.4,0.5,3.2,3.7,3.8,4.4c0.2,0.3,2.6,2.8,5.1,5.6c7.9,8.6,7.9,8.6,7.9,8.7c0,0.1,0.4,0.7,0.8,0.9l0.1,0.1
				c0.2,0.2,0.5,0.5,0.8,0.5c0.1,0,0.2,0,0.3,0l0,0c0.6,0,1.3-0.1,1.5-0.2c0.3-0.1,0.5-0.4,0.7-0.7c0.1-0.1,0.2-0.3,0.3-0.4
				c0.2-0.1,0.8-1.2,0.8-2.1c0-0.3-0.1-0.5-0.3-0.7c-0.4-0.3-1.9-1.7-2.4-2.2c-0.1-0.1-8.2-8.1-8.9-9.4c-0.6-1.1-1.7-1.9-1.7-2l0,0
				C89.1,19,83,12.5,82.8,12c-0.1-0.2-1.1-1.3-2-2.3c-1.1-1.2-2.3-2.5-2.7-3.1c-0.3-0.6-1.3-1.8-2.2-2.9c-1.2-1.5-1.5-1.9-1.5-2.1
				c-0.1-0.3-0.5-0.8-0.7-0.8c-0.2,0.1-0.4,0.2-0.7,0.4c-0.4,0.2-0.8,0.5-1.4,0.8C70.9,2.3,70.5,2.6,70.4,2.7z"/>
		</g>
		<g id="XMLID_845_">
			<path id="XMLID_846_" class="st0" d="M101.6,39.2L101.6,39.2L101.6,39.2c-0.6-0.1-1-0.5-1.2-0.7c-0.4-0.3-0.9-0.9-1-1.2
				c-0.6-0.8-11.3-13.7-11.9-14.4c-0.6-0.7-3.4-3.6-3.7-4c-0.3-0.3-4-4.3-4.2-4.7c-0.1-0.2-1-1.1-1.8-2c-1.2-1.3-2-2.2-2.2-2.5
				c-0.2-0.2-0.8-1-1.4-1.6c-0.7-0.8-1.2-1.3-1.3-1.5c-0.2-0.3-0.5-0.5-1-0.8c-0.6-0.3-0.5-1.9-0.4-2.8c0-0.4,1.5-1.4,1.7-1.5l0.1,0
				l0.1,0c0.8,0,4.1,5,5.2,6.6c0.3,0.5,1.9,2.3,3.3,3.8c2.2,2.4,2.8,3.2,2.9,3.4c0.3,0.4,5.3,5.5,8.6,8.8c2.5,3,6.3,7.6,6.6,7.9
				c0.2,0.2,0.8,0.8,1.4,1.5c1,1,2.5,2.5,2.7,2.7c0.3,0.3,0.5,0.6,0.3,1C104.2,38.1,102.2,39.2,101.6,39.2z M72.1,3.1
				c-0.1,1,0,2,0.1,2.1c0.4,0.2,0.9,0.5,1.2,1c0.1,0.2,0.7,0.8,1.3,1.4c0.7,0.7,1.3,1.4,1.5,1.7c0.2,0.2,1.3,1.4,2.1,2.4
				c1.1,1.2,1.7,1.9,1.8,2c0.2,0.3,3.7,4.2,4.2,4.6c0.4,0.4,3.2,3.4,3.8,4.1c0.1,0.1,11.9,14.3,12,14.6c0,0.1,0.4,0.7,0.7,0.9
				l0.1,0.1c0.2,0.2,0.5,0.5,0.7,0.5c0.3,0,2.1-0.9,2.3-1.6c0-0.1,0-0.2-0.1-0.3c-0.3-0.2-1.3-1.3-2.8-2.7c-0.7-0.7-1.2-1.3-1.4-1.4
				c-0.5-0.5-6-7.2-6.7-8c-2.6-2.5-8.6-8.5-8.7-9c-0.1-0.2-1.6-1.9-2.8-3.2c-1.5-1.7-3-3.4-3.4-3.9c-1.3-2-4-5.8-4.6-6.3
				C73,2.4,72.3,2.9,72.1,3.1z"/>
		</g>
		<g id="XMLID_839_">
			<path id="XMLID_840_" class="st0" d="M101.8,37.9L101.8,37.9c-0.6-0.1-1-0.5-1.2-0.7c-0.4-0.3-0.9-0.9-1-1.2
				c-0.5-0.7-11.3-13.8-11.9-14.4c-0.6-0.6-3.3-3.6-3.7-4c-0.3-0.3-4-4.3-4.2-4.7c-0.1-0.2-1-1.1-1.8-2c-1.2-1.3-2-2.2-2.1-2.4
				c-0.2-0.2-0.8-0.9-1.4-1.6c-0.8-0.8-1.3-1.4-1.4-1.6c-0.2-0.3-0.5-0.6-1-0.8c-0.6-0.3-0.5-1.9-0.4-2.8l0-0.3l0.3,0
				c0.2,0,0.3,0.1,0.4,0.4C73,2.7,73.2,2.9,73.3,3l0,0l0.1,0c0.5,0,0.9,0.7,2.1,2.9c0.3,0.5,0.6,1,0.7,1.3c0.3,0.5,3.3,3.7,5.9,6.5
				c4,4.3,5.1,5.6,5.2,5.8c0.2,0.4,4,4.2,6.4,6.5c1.3,1.6,4.7,5.7,5.1,6c0.3,0.3,0.7,0.9,1.1,1.5c0.3,0.5,0.8,1.2,1,1.3
				c1,0.8,1.4,2.1,1.2,2.7C102.2,37.7,102,37.9,101.8,37.9z M88.7,21.7c2.2,2.6,11.5,13.8,11.5,14.1c0,0.1,0.4,0.7,0.7,0.9l0.1,0.1
				c0.1,0.1,0.4,0.4,0.6,0.5c0-0.4-0.3-1.3-1-1.8c-0.2-0.2-0.6-0.7-1.1-1.5c-0.4-0.6-0.8-1.2-1-1.4c-0.5-0.5-4.9-5.9-5.1-6.1
				C92.3,25.3,90.2,23.2,88.7,21.7z M80.6,12.8c0.9,1,3.5,3.9,3.9,4.3c0.3,0.3,1.4,1.5,2.4,2.6c-0.2-0.3-2.8-3.1-5.1-5.6
				C81.4,13.6,81,13.2,80.6,12.8z M72.3,2.8c0,0.6,0.1,1,0.2,1.2c0.4,0.2,0.9,0.5,1.2,1c0.1,0.2,0.7,0.9,1.3,1.5
				c0.2,0.2,0.4,0.5,0.6,0.7c-0.2-0.3-0.3-0.6-0.5-0.9c-0.4-0.8-1.3-2.3-1.6-2.5C73.1,3.7,72.7,3.4,72.3,2.8z"/>
		</g>
		<g id="XMLID_832_">
			<g id="XMLID_833_">
				<path id="XMLID_834_" class="st0" d="M55.7,79.6L55.7,79.6c-1.5,0-3.3-0.1-3.9-0.2c-0.7-0.1-1.5-0.5-2.1-0.8
					c-0.1-0.1-0.2-0.1-0.3-0.1c-0.2,0-0.5,0-0.9-0.3c-0.4-0.3-1.8-1.2-2.4-1.5L46,76.6c-0.1,0-0.1,0-0.2-0.1c-0.3,0-0.6-0.1-1.3-0.5
					c-0.6-0.3-1.2-0.9-1.8-1.3c-0.4-0.3-0.7-0.6-0.9-0.7C41.5,74,41.5,74,41.4,74c-0.2,0-0.3,0-0.7-0.2c-0.6-0.3-1.6-1.1-1.8-1.3
					c-0.5-0.2-1.4-0.9-2.5-2c-0.3-0.2-0.5-0.5-0.7-0.6c-0.5-0.4-1.1-1.3-1.6-2c-0.3-0.4-0.6-0.8-0.7-0.9c-0.4-0.3-0.5-0.9-0.6-1.1
					c-1.2-1.8-1.6-3.1-1.7-3.4c0-0.1,0-0.2-0.1-0.3c0-0.2-0.1-0.7-0.2-0.8c-0.1-0.1-0.2-0.3-0.3-0.5c-0.1-0.2-0.2-0.6-0.5-1.2
					c-0.6-1.3-1-3.3-1.1-3.4c0-0.4-0.1-0.9-0.1-1.3c-0.1-0.8-0.1-1.5-0.1-1.8c0-0.8-0.1-1.6-0.3-1.8c-0.4-0.6-0.3-1,0-1.5
					c0.1-0.2,0.1-0.3,0.1-0.6c0-0.2,0-0.4,0-0.8c0-0.4,0-1.4-0.1-2.3c-0.1-1.1-0.1-1.7-0.1-2l0-0.1c0.1-1.2,0.3-2.1,0.7-2.3
					c0.2-0.1,0.5-1.1,0.7-1.5c0.1-0.2,0.1-0.4,0.2-0.5c0.1-0.3,0.5-1.8,1-3.7c0.3-1.2,1.2-3.1,1.9-4.3c0.2-0.4,0.3-0.7,0.4-0.9
					c0.3-0.6,0.4-0.8,0.6-1c0.1-0.1,0.2-0.2,0.4-0.5c0.4-0.6,1.4-2.6,1.4-2.6l0-0.1c0.1-0.1,0.3-0.3,0.4-0.5
					c0.6-0.8,1.6-1.9,2.5-2.4c1.1-0.6,3.3-2,3.3-2c3.4-1.9,8.3-3.7,8.3-3.7c4-1.3,5.2-1.3,7.3-1.3l0.1,0c1.8,0,4.7,0.7,7.3,1.3
					c0.6,0.1,1.2,0.3,1.7,0.4c2.3,0.5,3.7,1.2,4.5,1.6c0.2,0.1,0.4,0.2,0.5,0.2c0.4,0.2,1.6,0.9,2.7,1.6c0.7,0.5,1.4,0.9,1.7,1.1
					c0.7,0.4,3.4,2.4,3.9,2.9c0.5,0.5,2.6,2.2,2.6,2.2c1.5,1,2.9,2.5,4.1,4.5c0.4,0.7,1.6,3.1,2,4c0.2,0.4,0.4,1,0.6,1.7
					c0.3,0.9,0.7,2,1,2.5c0.5,0.8,1.2,2.9,1.2,3.4c0,0,0,0.1,0.1,0.2c0.1,0.2,0.3,0.4,0.3,0.9c0,0.5,0.2,0.9,0.2,0.9
					c0.4,0.8,0.4,2.4,0.4,3.3c0,0.2-0.1,0.7-0.1,1.2c-0.1,1.5-0.2,2.6-0.3,2.9c0,0.1-0.1,0.4-0.1,0.6c-0.1,0.8-0.1,1.3-0.4,1.6
					c-0.1,0.1-0.1,0.5-0.1,0.8c0,0.5,0,1-0.2,1.3c-0.1,0.1-0.1,0.2-0.1,0.2c0,0.1,0,0.1-0.1,0.3l-0.2,0.5c-0.3,0.9-1,2.8-1.2,3.3
					c-0.1,0.2-0.2,0.5-0.4,0.7c-0.2,0.3-0.4,0.7-0.4,1c0,0.7-0.1,0.8-0.6,1.1l-0.1,0.1c-0.1,0.1-0.1,0.1-0.2,0.3
					c-0.2,0.4-0.6,1.1-1.8,2.6c-1.4,1.7-3.1,2.7-4.2,3.4c-0.4,0.3-0.8,0.5-1.1,0.7c-1,0.8-3.5,2-4.9,2.7L75.7,75
					c-0.7,0.4-1.7,0.7-2.7,1c-0.7,0.2-1.3,0.4-2,0.7c-1.8,0.7-7.1,1.9-7.8,2.1c-0.7,0.1-4,0.6-5.7,0.8C57,79.6,56.4,79.6,55.7,79.6z
					 M29.7,56.2c0,0,0.4,2,1,3.2c0.3,0.7,0.4,1,0.5,1.3c0.1,0.2,0.1,0.2,0.1,0.2c0.2,0.2,0.3,0.6,0.4,1.1c0,0.1,0,0.2,0.1,0.3
					c0,0.2,0.4,1.5,1.6,3.3l0,0.1l0,0.1c0,0.2,0.2,0.6,0.4,0.8c0.2,0.1,0.4,0.5,0.8,1c0.5,0.7,1,1.5,1.5,1.9
					c0.2,0.2,0.5,0.4,0.7,0.6c0.7,0.7,2,1.8,2.3,1.8l0.1,0l0.1,0.1c0.3,0.3,1.2,1,1.7,1.2c0.3,0.1,0.4,0.1,0.5,0.1
					c0.2,0,0.3,0,0.6,0.2c0.2,0.1,0.6,0.4,1,0.7c0.5,0.4,1.2,0.9,1.7,1.2c0.5,0.3,0.8,0.4,1.1,0.4c0.2,0,0.3,0.1,0.5,0.2l0.2,0.1
					c0.9,0.6,2.1,1.3,2.4,1.6c0.2,0.2,0.3,0.2,0.5,0.2c0.2,0,0.4,0,0.6,0.2c0.7,0.4,1.4,0.7,1.9,0.7c0.5,0.1,2.2,0.2,3.8,0.2h0
					c0.7,0,1.2,0,1.7-0.1c1.8-0.2,5-0.6,5.7-0.8c0.6-0.1,6-1.4,7.7-2c0.7-0.3,1.4-0.5,2-0.7c1-0.3,1.9-0.6,2.6-1l0.4-0.2
					c1.3-0.7,3.8-2,4.8-2.7c0.3-0.2,0.7-0.5,1.2-0.8c1.1-0.7,2.7-1.6,4.1-3.3c1.2-1.4,1.5-2.1,1.7-2.5c0.1-0.3,0.2-0.4,0.4-0.6
					l0.1-0.1c0.3-0.2,0.3-0.2,0.3-0.5c0-0.5,0.3-0.9,0.5-1.3c0.1-0.2,0.2-0.4,0.3-0.6c0.2-0.6,0.9-2.4,1.2-3.3l0.2-0.5
					c0.1-0.2,0.1-0.2,0.1-0.4c0,0,0.1-0.1,0.1-0.2c0.1-0.2,0.1-0.6,0.1-1c0-0.6,0-1.1,0.3-1.3c0.1-0.1,0.1-0.8,0.2-1.1
					c0-0.3,0-0.6,0.1-0.7c0.1-0.2,0.2-1.8,0.2-2.8c0-0.5,0.1-1,0.1-1.2c0.1-0.8,0-2.2-0.3-2.9c0,0-0.3-0.5-0.3-1.2
					c0-0.2-0.1-0.3-0.2-0.4c-0.1-0.1-0.2-0.3-0.2-0.6c0-0.3-0.7-2.2-1.2-3c-0.3-0.5-0.7-1.6-1-2.6C88.4,38,88.2,37.4,88,37
					c-0.4-0.9-1.6-3.3-2-4c-1.1-1.9-2.4-3.3-3.9-4.3C82,28.7,80,27,79.5,26.5c-0.5-0.4-3.1-2.4-3.7-2.8c-0.3-0.2-1-0.6-1.7-1.1
					c-1-0.6-2.2-1.4-2.6-1.6c-0.2-0.1-0.3-0.1-0.6-0.3c-0.8-0.4-2.1-1-4.4-1.5c-0.5-0.1-1.1-0.3-1.7-0.4c-2.5-0.6-5.4-1.3-7.1-1.3
					l-0.1,0c-2.1,0-3.2,0-7.1,1.3c0,0-4.9,1.8-8.2,3.7c0,0-2.2,1.4-3.3,2c-0.8,0.5-1.7,1.6-2.3,2.3c-0.2,0.2-0.3,0.4-0.4,0.5
					c-0.1,0.3-1.1,2-1.4,2.5c-0.2,0.3-0.3,0.4-0.4,0.6c-0.2,0.2-0.3,0.3-0.5,0.8c-0.1,0.2-0.3,0.5-0.5,0.9c-0.6,1.2-1.5,3-1.8,4.1
					c-0.2,0.8-0.8,3.3-1,3.8c0,0.1-0.1,0.2-0.2,0.4c-0.3,0.9-0.5,1.6-0.9,1.8c-0.1,0.1-0.3,0.4-0.4,1.9l0,0.1c0,0.2,0,1.1,0.1,1.9
					c0,0.9,0.1,1.8,0.1,2.3c0,0.3,0,0.5,0,0.7c0,0.4,0,0.6-0.1,0.9c-0.2,0.4-0.2,0.6,0,0.8c0.3,0.5,0.4,1.6,0.4,2.2
					c0,0.3,0.1,1,0.1,1.7C29.6,55.3,29.6,55.8,29.7,56.2L29.7,56.2z M53.9,74.9c-0.8,0-2-0.6-3-1c-0.2-0.1-0.4-0.2-0.6-0.3
					c-0.7-0.3-0.9-0.6-1-1c0-0.1,0-0.1-0.1-0.2c-0.1-0.1-0.8-0.2-1.1-0.3c-0.3,0-0.6-0.1-0.8-0.2c-0.8-0.2-4.2-2.2-4.6-2.4
					c-0.2-0.1-0.3-0.2-0.5-0.4c-0.4-0.3-0.9-0.6-1.6-0.9c-0.9-0.4-2-1.3-3.2-2.7c-0.9-1-1.7-2.8-1.8-3.4c-0.1-0.3-0.8-1.6-1.2-2.2
					c-0.1-0.2-0.2-0.4-0.3-0.5c-0.3-0.5-0.7-1.5-0.7-2.1c0-0.3,0-0.6-0.1-1.1l-0.1-0.9c-0.1-0.8-0.3-2.1-0.4-2.7
					c-0.1-0.7-0.2-2-0.2-2c-0.1-0.8-0.1-3.2-0.1-4.1c0-1.1,0.1-1.9,0.4-2.2c0.1-0.1,0.2-0.2,0.3-0.3c0.1-0.1,0.2-0.1,0.2-0.2
					c0-0.1,0.1-0.2,0.1-0.4c0.1-0.5,0.2-1.1,0.5-1.5c0.2-0.2,0.4-0.6,0.7-1.1c0.2-0.3,0.4-0.7,0.7-1.2c0.8-1.4,1.5-2.9,1.7-3.3
					l0.1-0.1c0.6-1.3,1.5-3.1,2.2-3.9c0.3-0.4,0.4-0.6,0.5-0.8c0.1-0.3,0.3-0.6,0.9-1.2c0.3-0.4,0.7-0.8,1-1.3
					c0.8-1,1.5-1.9,2.2-2.4c0.5-0.3,1.1-0.8,1.7-1.3c0.5-0.4,0.9-0.7,1.2-0.9c0.4-0.2,0.8-0.3,1-0.3c0.1,0,0.2,0,0.2,0
					c0.2-0.3,0.7-0.5,1.5-0.7c0.3-0.1,0.6-0.1,1-0.1c0.5,0,1-0.1,1.5-0.3c0.6-0.2,2.2-0.3,4.6-0.3c1,0,1.9-0.1,2.5-0.1
					c2.1-0.1,5.2,0.8,5.5,0.9c0.1,0,0.2,0.1,0.3,0.2c0.3,0.2,0.8,0.6,1.9,0.6c1.6,0.1,3.3,0.6,3.4,0.6c0.3,0.1,2.3,1.1,2.8,1.5
					c0.3,0.3,0.9,0.6,1.3,0.7l0.1,0.1c0.1,0,0.2,0.1,0.3,0.1c0.4,0.1,0.9,0.2,1.5,0.8c0.7,0.7,3.2,2.6,3.3,2.6l0.1,0.1l0,0.1
					c0.1,0.3,0.1,0.4,0.4,0.5c0.1,0.1,0.3,0.2,0.5,0.4c0.1,0.1,0.3,0.3,0.5,0.4c1,0.8,1.8,1.5,2,2c0.1,0.3,0.2,0.5,0.4,0.6
					c0.1,0.1,0.2,0.2,0.3,0.3c0.1,0.1,0.1,0.3,0.2,0.5c0.1,0.3,0.4,0.8,0.7,1.3c0.5,0.6,0.9,2.1,1.2,3.8c0.1,0.3,0.1,0.5,0.2,0.7
					c0.1,0.4,0.3,0.9,0.5,1.5c0.4,1.3,0.7,2,0.7,2.4c0,0.5,0,1.4,0.5,2.5c0.5,1.2,0.3,4,0,6.2c-0.2,1.8-0.5,3.4-0.6,3.9
					c0,0.1,0,0.2-0.1,0.4c-0.1,0.8-0.3,2.1-1,2.6c-0.3,0.2-0.4,0.5-0.5,0.9c-0.2,0.4-0.3,0.9-0.8,1.3c-0.8,0.7-2.5,2.3-2.5,2.3
					L82,65.8c-0.6,0.2-2.5,1.3-3.3,1.9c-0.8,0.6-3.1,2.1-3.9,2.5c-0.3,0.1-0.7,0.3-1,0.5c-0.6,0.3-1.1,0.5-1.4,0.6
					c-0.1,0-0.2,0.1-0.3,0.1c-0.3,0.1-0.6,0.2-1,0.3c-0.1,0-0.2,0.1-0.4,0.2c-0.5,0.3-1.3,0.7-2,0.7c-0.5,0-1,0.3-1.4,0.4
					c-0.5,0.2-0.7,0.3-1,0.3c-0.2,0-0.6,0-0.9,0.1c-0.6,0.3-1.3,0.4-2.4,0.5c-0.5,0-0.8,0.2-1.2,0.3c-0.5,0.2-1.1,0.4-2,0.4
					c-0.7,0-1.7,0.1-2.7,0.2C55.6,74.9,54.4,74.9,53.9,74.9z M59.4,23.5c-0.1,0-0.3,0-0.4,0c-0.7,0-1.6,0.1-2.6,0.1
					c-1.7,0.1-3.9,0.1-4.4,0.3c-0.6,0.2-1.1,0.3-1.7,0.3c-0.3,0-0.6,0-0.9,0.1c-0.8,0.2-1.1,0.4-1.1,0.4C48.3,25,48,25,47.8,25.1
					c-0.2,0-0.5,0.1-0.8,0.3c-0.3,0.2-0.7,0.5-1.1,0.8c-0.6,0.5-1.2,1-1.7,1.3c-0.6,0.4-1.3,1.3-2.1,2.2c-0.4,0.5-0.7,0.9-1.1,1.3
					c-0.5,0.6-0.6,0.8-0.7,1.1c-0.1,0.2-0.2,0.5-0.6,1c-0.7,0.9-1.8,3-2.1,3.8l-0.1,0.1c-0.2,0.4-1,2-1.7,3.4
					c-0.3,0.5-0.5,0.9-0.6,1.2c-0.3,0.6-0.5,0.9-0.8,1.2C34.1,43,34,43.5,34,43.9c0,0.2-0.1,0.4-0.1,0.5c-0.1,0.3-0.3,0.4-0.4,0.6
					c-0.1,0.1-0.1,0.1-0.2,0.2C33,45.3,33,46.3,33,46.9c0,1,0,3.3,0.1,4c0,0,0.1,1.3,0.2,2c0.1,0.6,0.3,1.8,0.4,2.6l0.1,0.9
					c0.1,0.5,0.2,0.9,0.1,1.2c0,0.3,0.3,1.1,0.6,1.7c0.1,0.1,0.2,0.3,0.3,0.5c0.6,1,1.1,2,1.2,2.4c0.1,0.4,0.9,2.2,1.7,3.1
					c1.1,1.3,2.2,2.2,3,2.5c0.7,0.3,1.3,0.7,1.7,1c0.2,0.1,0.3,0.2,0.5,0.3c0.7,0.4,3.8,2.2,4.4,2.3c0.2,0.1,0.5,0.1,0.8,0.1
					c0.8,0.1,1.4,0.2,1.6,0.6c0.1,0.1,0.1,0.3,0.1,0.3c0,0.2,0,0.3,0.6,0.5c0.2,0.1,0.4,0.2,0.6,0.3c0.9,0.4,2.1,0.9,2.8,0.9
					c0.5,0,1.7-0.1,3-0.2c1-0.1,2-0.1,2.8-0.2c0.9,0,1.4-0.2,1.8-0.4c0.4-0.1,0.8-0.3,1.4-0.3c1.3-0.1,1.8-0.3,2.2-0.4
					c0.5-0.2,0.9-0.2,1.2-0.2c0.1,0,0.1,0,0.2,0c0.1,0,0.3-0.1,0.6-0.2c0.5-0.2,1-0.4,1.6-0.5c0.6-0.1,1.3-0.4,1.8-0.7
					c0.1-0.1,0.3-0.1,0.4-0.2c0.4-0.2,0.8-0.3,1.1-0.4c0.1,0,0.2-0.1,0.3-0.1c0.2-0.1,0.7-0.3,1.3-0.6c0.3-0.2,0.7-0.3,1-0.5
					c0.7-0.3,2.9-1.7,3.8-2.4c0.8-0.6,2.7-1.7,3.4-2c0.3-0.3,1.8-1.7,2.5-2.3c0.3-0.3,0.5-0.7,0.6-1c0.1-0.4,0.3-0.8,0.7-1.2
					c0.4-0.4,0.6-1.6,0.7-2.3c0-0.2,0.1-0.4,0.1-0.5c0.1-0.5,0.4-2.1,0.6-3.8c0.2-1.3,0.6-4.7,0.1-5.9c-0.6-1.2-0.6-2.2-0.6-2.8
					c0-0.3-0.3-1.4-0.6-2.2c-0.2-0.6-0.4-1.1-0.5-1.5c0-0.2-0.1-0.4-0.2-0.7c-0.2-1-0.7-3-1.1-3.5c-0.4-0.5-0.6-1-0.8-1.4
					c-0.1-0.2-0.1-0.3-0.2-0.4c0-0.1-0.1-0.1-0.2-0.2c-0.2-0.2-0.5-0.4-0.6-1c-0.1-0.4-1.2-1.3-1.8-1.7c-0.2-0.2-0.4-0.3-0.5-0.4
					c-0.2-0.1-0.3-0.2-0.4-0.3c-0.3-0.2-0.5-0.3-0.7-0.8c-0.5-0.4-2.5-1.9-3.2-2.5c-0.5-0.4-0.9-0.5-1.2-0.6c-0.1,0-0.3-0.1-0.4-0.1
					l-0.1-0.1c-0.4-0.2-1.1-0.4-1.5-0.9c-0.4-0.4-2.2-1.3-2.5-1.4c0,0-1.8-0.5-3.3-0.6c-1.3-0.1-1.9-0.5-2.2-0.7
					c-0.1-0.1-0.2-0.1-0.2-0.1C64,24.3,61.4,23.5,59.4,23.5z"/>
			</g>
		</g>
		<g id="XMLID_828_">
			<path id="XMLID_829_" class="st0" d="M47.1,113c-1.4,0-2.7-1.4-3.7-2.5c-0.5-0.5-0.9-1-1.2-1.2c-1-0.7-2-1.3-2.9-2
				c-1.6-1.1-3-2-4.8-3.1c-2.2-1.4-4.6-3.1-7.1-4.9C24.2,97,20.9,94.7,18,93L17.9,93c-8-4.5-16.6-9.5-16.6-12.6c0-0.6,0.3-1.1,1-1.5
				c0.4-0.2,1.2-0.3,1.7-0.3c0.4,0,0.6,0.1,0.7,0.1c0.6,0.3,1.3,0.8,2.1,1.3c1.6,1,3.4,2.2,4.7,2.8c2.3,1.1,5.7,4.1,8.3,6.4
				c1.3,1.1,2.7,2.3,3.4,2.8c0,0,0-0.1,0-0.1c-0.1-0.2-0.3-0.5-0.2-6.2c0-3.5-0.7-11.1-1.3-16.4c-1.3-11.3-1.2-13.6-0.5-14.4
				c0.3-0.3,0.7-0.4,0.9-0.4c0.2,0,0.3,0,0.5,0l0.1,0c2.8,1.1,2.8,2.3,2.6,5.2c0,0.5-0.1,1-0.1,1.5c-0.1,2,0.2,4.9,0.6,7.8
				c0.3,2.5,0.6,4.8,0.6,6.6c0,5.6,0.1,11.1,1.4,16.7c0.1,0,0.2,0,0.3,0c4.5,0,9.7-1.7,14.9-3.4c3-1,5.8-1.9,8.3-2.4
				c3.5-0.7,10-2,12.1-2c0.4,0,0.8,0,0.9,0.3c0,0,0,0.1,0,0.2c0.6,0.4,0.8,0.9,0.7,1.3c-0.3,1.7-5,2.6-12.6,4
				c-3.6,0.7-7.3,1.4-9.9,2.1c-1.2,0.4-2.5,0.8-3.8,1.3c-2.5,0.9-5.1,1.8-7.6,2.2c0.1,1,1.4,2,2.4,2.7c0.2,0.1,0.4,0.3,0.5,0.4
				c1.6,1.2,3.6,2.2,5.6,3.2c1.7,0.9,3.5,1.8,5,2.8c0.2,0.2,0.6,0.4,1.1,0.7c1.9,1.1,4.8,2.7,4.8,4.3c0,0.5-0.3,1-0.8,1.3
				C48.7,112.5,48,113,47.1,113L47.1,113z M3.9,79.3c-0.5,0-1.2,0.1-1.3,0.2c-0.4,0.3-0.7,0.6-0.7,0.9c0,2.9,11,9.1,16.3,12l0.1,0.1
				c2.9,1.6,6.2,4,9.4,6.3c2.5,1.8,4.9,3.5,7,4.9c1.8,1.1,3.3,2.1,4.8,3.2c0.9,0.6,1.9,1.3,2.9,2c0.4,0.3,0.8,0.7,1.3,1.3
				c1,1,2.2,2.3,3.3,2.3c0.6,0,1.2-0.4,1.7-1.2l0-0.1l0.1,0c0.4-0.3,0.6-0.5,0.6-0.8c0-1.2-2.9-2.9-4.5-3.8
				c-0.5-0.3-0.9-0.5-1.2-0.7c-1.4-1-3.2-1.9-4.9-2.7c-2-1-4.1-2.1-5.7-3.3c-0.2-0.1-0.3-0.2-0.5-0.4c-1.2-0.8-2.8-2-2.6-3.5l0-0.2
				l0.2,0c2.5-0.4,5.2-1.3,7.7-2.2c1.3-0.4,2.5-0.9,3.8-1.3c2.6-0.8,6.4-1.5,10-2.2c5.3-1,11.9-2.2,12.1-3.5
				c0.1-0.3-0.3-0.6-0.7-0.8L63,85.2c-1.8,0-7.4,1-11.9,2c-2.5,0.5-5.3,1.4-8.3,2.4c-5.4,1.8-11,3.6-15.7,3.4l-0.2,0l-0.1-0.2
				c-1.4-5.8-1.5-11.4-1.5-17.1c0-1.7-0.3-4.1-0.6-6.5c-0.3-2.8-0.7-5.8-0.6-7.9c0-0.6,0.1-1.1,0.1-1.6c0.2-2.9,0.2-3.7-2.1-4.5
				c-0.1,0-0.3,0-0.4,0c-0.2,0-0.3,0.1-0.4,0.1c-0.6,0.7-0.5,4.3,0.7,13.9c0.6,5.4,1.4,12.9,1.3,16.5c0,5,0.1,5.8,0.2,5.9
				c0.3,0.5,0.3,0.8,0.2,1c-0.1,0.1-0.2,0.2-0.4,0.2h0c-0.5,0-1.5-0.8-4.2-3.2c-2.7-2.3-6-5.2-8.2-6.3c-1.3-0.7-3.2-1.8-4.8-2.9
				c-0.8-0.5-1.5-0.9-2-1.3C4.2,79.3,4.1,79.3,3.9,79.3z"/>
		</g>
		<g id="XMLID_824_">
			<path id="XMLID_825_" class="st0" d="M46.8,111.6c-1.4,0-2.6-1.8-3.7-3.3c-0.6-0.8-1.1-1.5-1.4-1.7c-1-0.6-1.9-1.2-2.8-1.7
				c-1.5-0.9-2.9-1.8-4.5-2.7C28.9,99,22.2,95,18,91.9c-2.3-1.7-4.9-3.4-7.1-4.9c-4.9-3.2-7.5-5-7.5-6.3c0-0.2,0.1-0.5,0.4-0.8
				c0.4-0.3,0.9,0.1,3.4,2.2c0.3,0.2,0.5,0.5,0.6,0.5c1.2,0.7,2.8,1.8,4.2,2.8c0.6,0.4,1.2,0.8,1.6,1.2c0.7,0.5,1.7,1.2,2.8,2
				c2.9,2,7.6,5.4,8.8,5.7c0-0.1-0.1-0.1-0.1-0.2c-0.2-0.4-1.8-6-1.8-8.1c0-3-0.3-9.3-0.5-14l0-0.6c-0.1-3.3-0.3-6-0.4-7.9
				c-0.3-4.3-0.3-5.6,0.2-6.2c0.2-0.2,0.5-0.3,1-0.3l0.4,0l-0.1,0.4c-0.1,0.2,0,0.9,0.1,1.7c0.1,1.3,0.2,3.2,0.1,5.4
				c-0.1,2.7,0.1,5.7,0.3,8.3c0.1,1.6,0.2,3.1,0.2,4.1c0,5.1,0.8,11.6,2,16.3c4.4,0.1,10.4-1.7,15.7-3.3c3-0.9,5.9-1.7,8.2-2.2
				c1.3-0.3,3-0.6,4.5-1c3.2-0.7,6.1-1.3,7.1-1.3c0.1,0,0.5,0,0.6,0.3c0,0.1,0,0.2,0,0.3c0,0.1,0,0.2,0,0.3c-0.4,1-4.2,1.8-11,3.2
				c-3.5,0.7-7.2,1.5-10,2.3c-3.6,1-10.4,2.4-14,3c0.2,1,1.9,2.3,2.8,2.9l0.2,0.2c1.7,1.2,4.7,2.9,7.3,4.5c1.9,1.1,3.6,2.1,4.8,2.9
				c0.7,0.5,5.6,3.9,5.8,4.9l0,0.1l-0.1,0.1C48,111.2,47.5,111.6,46.8,111.6L46.8,111.6z M4.1,80.5C4,80.6,4,80.6,4,80.7
				c0,1,3.5,3.3,7.2,5.8c2.2,1.5,4.8,3.1,7.1,4.9c4.2,3.1,10.9,7.1,16.3,10.2c1.7,1,3.1,1.8,4.6,2.8c0.9,0.6,1.8,1.1,2.8,1.7
				c0.5,0.3,1,1,1.6,1.9c1,1.4,2.2,3,3.2,3h0c0.4,0,0.7-0.2,1-0.7c-0.5-0.8-4-3.5-5.5-4.4c-1.2-0.8-2.9-1.8-4.8-2.9
				c-2.8-1.6-5.7-3.3-7.3-4.5L30,98.3c-1.2-0.9-3.3-2.3-3.1-3.7l0-0.2l0.2,0c3.5-0.5,10.5-1.9,14.2-3c2.8-0.8,6.5-1.5,10-2.3
				C56,88.2,61.7,87,62,86.3l0,0c-1,0-4,0.7-6.8,1.3c-1.6,0.3-3.2,0.7-4.6,1c-2.3,0.5-5.2,1.3-8.2,2.2C37,92.3,30.7,94.2,26.3,94
				l-0.2,0L26,93.8c-1.3-4.9-2.1-11.4-2.1-16.7c0-1-0.1-2.5-0.2-4.1c-0.2-2.7-0.5-5.7-0.3-8.4c0.1-2.1,0-4-0.1-5.3
				c-0.1-0.7-0.1-1.2-0.1-1.5c-0.1,0-0.1,0-0.1,0.1c-0.3,0.4-0.2,2.2,0,5.7c0.1,1.9,0.3,4.5,0.4,7.9l0,0.6c0.2,4.6,0.5,11,0.5,14
				c0,2,1.5,7.4,1.7,7.8c0.2,0.3,0.3,0.7,0.1,0.9c-0.1,0.1-0.2,0.2-0.5,0.2l0,0c-1.1,0-4.7-2.5-9.3-5.8c-1.1-0.8-2.1-1.5-2.8-2
				c-0.5-0.3-1.1-0.7-1.7-1.2c-1.4-1-3-2.1-4.2-2.8c-0.1,0-0.2-0.1-0.7-0.6C6.1,82.1,4.6,80.7,4.1,80.5z"/>
		</g>
		<g id="XMLID_820_">
			<path id="XMLID_821_" class="st0" d="M56.1,76.3L56.1,76.3c-1.1,0-2-0.1-2.7-0.2L53,75.9c-1.4-0.3-2.3-0.5-3.8-1.3
				c-0.9-0.4-1.7-0.8-2.6-1.1c-1.6-0.7-3.1-1.3-4.6-2.3l0,0c-2.4-1.7-5.2-3.5-6.7-6.2c-0.8-1.4-1.4-3-1.9-4.5
				c-0.4-1.2-0.9-2.4-1.4-3.5c-0.6-1.3-0.7-2.8-0.8-4.2c0-0.8-0.1-1.5-0.2-2.2c-0.5-2.9,0.8-6.7,1.6-8.6c0.4-1.1,0.9-2,1.3-2.9
				c0.6-1.2,1.2-2.5,1.9-4.2l0-0.1l0.1-0.1c1.4-1.1,2.1-2.4,2.9-3.7c0.5-0.9,0.9-1.7,1.6-2.6c2-2.7,3.8-4.1,6.6-5.2
				c2.6-1.1,6.2-1.7,9.6-1.7c2.7,0,5.1,0.4,6.9,1.2c0.7,0.3,1.8,0.3,2.8,0.3c1.4,0,2.7,0.1,3.6,0.7c1.4,0.9,2.7,1.6,3.9,2.2
				c1.3,0.6,2.6,1.3,4.1,2.3c8.1,5.7,11.6,16.7,11.5,25c0,1.4-0.2,2-0.5,2.7c-0.2,0.6-0.4,1.2-0.5,2.3c-0.2,2.6-1,4.4-2.9,6.1
				c-0.3,0.3-0.6,0.6-0.9,0.8c-1.3,1.2-2.3,2.1-4,3.2l-0.1,0c-2.1,1.3-4.1,2.5-6.4,3.6c-2.3,1-4.2,1.7-6.2,2.3
				c-1,0.3-2.1,0.7-3.3,1.1C62.8,75.7,59,76.3,56.1,76.3z M36.4,35.1c-0.6,1.7-1.3,3-1.9,4.2c-0.5,1-0.9,1.9-1.3,2.9
				c-0.8,1.9-2,5.6-1.6,8.3c0.1,0.7,0.1,1.5,0.2,2.2c0.1,1.4,0.1,2.8,0.7,4c0.6,1.2,1,2.4,1.4,3.6c0.5,1.5,1.1,3,1.9,4.4
				c1.5,2.5,4.1,4.4,6.5,6l0,0c1.4,1,2.9,1.6,4.5,2.3c0.9,0.4,1.7,0.7,2.6,1.2c1.4,0.7,2.2,0.9,3.7,1.2l0.5,0.1
				c0.6,0.1,1.5,0.2,2.5,0.2c2.7,0,6.5-0.5,8.3-1.2c1.2-0.4,2.2-0.8,3.3-1.1c2-0.7,3.9-1.3,6.2-2.3c2.3-1,4.2-2.2,6.3-3.5l0.1,0
				c1.6-1,2.7-1.9,3.9-3.1c0.3-0.3,0.6-0.5,0.9-0.8c1.8-1.6,2.6-3.2,2.7-5.6c0.1-1.2,0.3-1.9,0.5-2.5c0.2-0.6,0.4-1.2,0.4-2.5
				c0.1-7.9-3.4-18.9-11.2-24.5c-1.4-1-2.7-1.6-4-2.3C72.3,25.6,71,25,69.6,24c-0.7-0.5-2-0.5-3.3-0.6c-1.1,0-2.2-0.1-3-0.4
				c-1.7-0.7-4-1.1-6.6-1.1c-3.3,0-6.9,0.6-9.4,1.7c-2.6,1.1-4.3,2.4-6.3,5c-0.6,0.8-1.1,1.7-1.6,2.6C38.6,32.6,37.9,34,36.4,35.1z"
				/>
		</g>
		<g id="XMLID_816_">
			<path id="XMLID_817_" class="st0" d="M57.8,76.8L57.8,76.8c-0.9,0-1.8,0-2.5-0.1l-0.3,0c-3.8-0.5-6.2-0.8-9.8-2.5
				c-1.8-0.8-7.2-3.6-8.6-5.8c-1.2-1.8-1.7-2.4-3.1-4.2l-0.8-1c-1.3-1.7-3.6-17.9-2-20.8c1.9-3.3,2.2-4.7,2.4-5.9
				c0.2-0.9,0.3-1.6,1.2-2.8c1.8-3,4.3-6.2,5.7-7.8c1.8-1.9,4.9-3.4,7.4-4.6l0.8-0.4c1.4-0.7,2.4-1,3.4-1c0.5,0,1,0.1,1.5,0.1
				c0.7,0.1,1.7,0.2,3,0.2c4.7,0,11.1,1.2,15.1,2.9l0.4,0.1c3.6,1.5,6.1,2.5,9,5.3c3.4,3.2,5.4,6.5,7.3,10.4c1.2,2.5,2.7,6,2.7,10
				c0,0.3,0,0.5,0,0.8c0,1.8,0,4-0.4,5.5c-0.6,2.2-1.3,4.5-2.1,6.6c-0.8,2.1-1,2.7-3,3.9c-0.7,0.5-1.5,1-2.3,1.5
				c-1.3,0.9-2.7,1.8-3.9,2.4c-1.1,0.6-2.1,1.2-3.1,1.7c-2.3,1.3-4.5,2.6-7.3,3.6C65.6,76.1,61.3,76.8,57.8,76.8z M51.7,20.5
				c-0.9,0-1.8,0.3-3.1,0.9l-0.8,0.4c-2.5,1.2-5.6,2.6-7.2,4.5c-1.4,1.5-3.9,4.7-5.6,7.7c-0.8,1.1-0.9,1.7-1.1,2.6
				c-0.2,1.1-0.6,2.7-2.5,6.1c-1.5,2.6,0.8,18.6,1.9,20.1l0.8,1c1.4,1.8,1.9,2.5,3.1,4.3c1.3,1.9,6.2,4.6,8.4,5.6
				c3.5,1.6,5.7,1.9,9.6,2.4l0.3,0c0.7,0.1,1.5,0.1,2.4,0.1h0c3.4,0,7.7-0.7,10.4-1.6c2.8-1,4.9-2.2,7.2-3.5c1-0.6,2-1.2,3.1-1.7
				c1.2-0.7,2.6-1.5,3.9-2.4c0.8-0.6,1.6-1.1,2.4-1.5c1.8-1.1,2-1.6,2.7-3.6c0.8-2.1,1.5-4.4,2.1-6.6c0.4-1.4,0.4-3.6,0.4-5.3
				c0-0.3,0-0.6,0-0.8c0-3-0.8-6-2.6-9.7c-1.9-3.9-3.9-7.1-7.2-10.3c-2.8-2.7-5.2-3.6-8.8-5.1L71,23.6c-3.9-1.6-10.2-2.8-14.8-2.8
				c-1.4,0-2.3-0.1-3.1-0.2C52.6,20.5,52.1,20.5,51.7,20.5z"/>
		</g>
		<g id="XMLID_812_">
			<path id="XMLID_813_" class="st0" d="M57.1,77.6c-2.6,0-5.1-0.2-7.2-0.7c-5.4-1.1-12-3.9-14.4-8.2c-2.3-4.2-4.4-9.4-5.9-14.8
				c-0.5-1.7-0.3-4-0.1-6.3c0.1-1.5,0.2-2.9,0.1-4c-0.3-3.3,0.6-4.5,1.6-6.1c0.6-0.9,1.3-1.9,1.9-3.6c2-5.1,4.3-8,9-11.1l0.4-0.3
				c2.4-1.6,4.5-3,7.5-3.6c3.4-0.7,5.5-1,7.2-1c1.1,0,2.2,0.1,3.5,0.4c1.3,0.3,2.4,0.5,3.2,0.6c2.7,0.5,3.9,0.7,7.6,2.8
				c1,0.6,1.9,1.1,2.7,1.5c1.6,0.8,2.8,1.4,4,2.4c2.4,1.8,5,4,6.5,6.3c1.8,2.8,3.1,6,4.3,9l0.2,0.5c0.3,0.7,0.6,1.3,1,2.1
				c0.6,1.2,1.2,2.4,1.5,3.6c0.7,2.6-0.1,5.4-0.8,7.9c-0.2,0.7-0.4,1.5-0.6,2.1c-0.2,0.8-0.5,1.5-0.8,2.2c-0.3,0.8-0.6,1.6-0.8,2.5
				c-0.4,2.5-3.1,4.6-4.7,5.8c-0.6,0.4-1.1,1-1.7,1.6c-1.2,1.2-2.4,2.4-4,2.8c-0.7,0.2-1.5,0.4-2.2,0.5c-0.6,0.1-1.2,0.2-1.8,0.4
				c-1.5,0.4-3,1.1-4.5,1.8c-1.6,0.8-3.2,1.5-5,1.9C62.7,77.3,60,77.6,57.1,77.6z M57.1,18.7c-1.7,0-3.8,0.3-7.1,0.9
				c-2.8,0.6-4.8,1.9-7.2,3.5l-0.4,0.3c-4.5,3-6.8,5.8-8.7,10.8c-0.6,1.7-1.3,2.7-1.9,3.7c-1,1.5-1.7,2.7-1.5,5.7
				c0.1,1.2,0,2.6-0.1,4.1c-0.2,2.2-0.3,4.5,0.1,6.1c1.5,5.3,3.5,10.6,5.8,14.7c2.3,4.1,8.7,6.8,14,7.9c2.1,0.4,4.6,0.7,7.1,0.7
				c2.8,0,5.5-0.3,7.7-0.8c1.7-0.4,3.3-1.2,4.9-1.9c1.5-0.7,3-1.4,4.6-1.8c0.6-0.2,1.2-0.3,1.8-0.4c0.7-0.1,1.4-0.3,2.1-0.5
				c1.4-0.4,2.6-1.5,3.7-2.7c0.6-0.6,1.2-1.2,1.8-1.6c1.5-1.1,4.1-3.1,4.4-5.3c0.2-1,0.5-1.8,0.8-2.6c0.3-0.7,0.6-1.4,0.7-2.1
				c0.2-0.7,0.4-1.4,0.6-2.2c0.7-2.5,1.4-5.1,0.8-7.5c-0.3-1.1-0.9-2.3-1.5-3.5c-0.4-0.7-0.7-1.4-1-2.1l-0.2-0.5
				c-1.3-3-2.5-6.2-4.3-8.9c-1.4-2.2-4.1-4.4-6.3-6.1c-1.2-0.9-2.4-1.5-3.9-2.3c-0.8-0.4-1.7-0.9-2.8-1.5c-3.6-2-4.6-2.2-7.4-2.7
				c-0.8-0.2-1.9-0.3-3.2-0.6C59.2,18.9,58.2,18.7,57.1,18.7z"/>
		</g>
	</g>
	<path id="XMLID_810_" class="st1" d="M106.3,100.2c0,0-0.6,4-6,4c0,0,0.3-5.5,5.6-4.5c0,0-1.9,1.9-3.1,2.4
		C102.8,102.1,105.5,101.3,106.3,100.2z"/>
	<g id="XMLID_772_">
		<g id="XMLID_806_">
			<path id="XMLID_807_" class="st0" d="M79.8,114.7c-0.6,0-1.2-0.2-1.7-0.6c-0.6-0.4-1-0.7-1.1-1.2c-0.1-0.3,0-0.6,0.3-1
				c0.8-1.1,0.7-10,0.3-10.6l0,0c-1.1-0.1-2.3-0.1-3.3,0c-0.2,0-0.3,0-0.5,0.1c-0.3,0.1-0.6,0.1-0.9-0.3c-0.6-0.6-0.8-2.2-0.1-3
				c0.3-0.3,1-0.5,2.3-0.5c0.6,0,1.2,0,1.8,0.1c0.6,0,1.1,0.1,1.5,0c0.7,0,1.4,0,2,0c0.9,0,1.7,0,2.6-0.1c0.3,0,0.6,0,0.9,0
				c0.3,0,0.6,0,0.9,0c0.8-0.1,1.4,1,1.4,1.8c0,0.4-0.1,0.7-0.4,1c-0.3,0.3-0.8,0.5-1.5,0.4c-0.2,0-0.6,0-1.1,0
				c-1,0-1.7,0.1-1.9,0.4c-0.2,0.4-0.3,1-0.3,1.9c0.1,1,0.3,2.1,0.5,3.1c0.2,0.7,0.3,1.4,0.4,2c0.2,1.1,0.2,2.1,0.2,3.3
				c0,1.3-0.2,2-0.9,2.7C80.8,114.5,80.3,114.7,79.8,114.7z M77.5,101.1c0.1,0,0.2,0.1,0.2,0.2c0.5,1,0.5,9.7-0.3,10.8
				c-0.2,0.3-0.3,0.6-0.3,0.8c0.1,0.4,0.5,0.7,1,1.1c1,0.7,2.1,0.7,3.1,0.1c0.7-0.6,0.9-1.2,0.9-2.5c0-1.1-0.1-2.2-0.2-3.2
				c-0.1-0.7-0.3-1.3-0.4-2c-0.2-1-0.5-2.1-0.6-3.1c-0.1-0.9,0-1.6,0.3-2c0.2-0.3,0.9-0.5,2.1-0.5c0.5,0,0.9,0,1.1,0
				c0.6,0,1-0.1,1.3-0.3c0.2-0.2,0.3-0.6,0.3-0.8c0-0.8-0.6-1.6-1.1-1.6l0,0c-0.3,0-0.6,0-0.9,0c-0.3,0-0.6,0-0.9,0
				c-0.9,0-1.7,0.1-2.6,0.1c-0.7,0-1.4,0-2,0c-0.4,0-0.9,0-1.5,0c-0.6,0-1.2-0.1-1.8-0.1c-0.4,0-1.8,0-2.1,0.4
				c-0.6,0.7-0.4,2.1,0.1,2.7c0.2,0.2,0.3,0.2,0.4,0.2c0.1,0,0.1,0,0.2,0c0.1,0,0.3-0.1,0.5-0.1C75.2,101,76.3,101,77.5,101.1
				L77.5,101.1z"/>
		</g>
		<g id="XMLID_802_">
			<path id="XMLID_803_" class="st0" d="M79.6,114c-0.4,0-0.8-0.1-1.2-0.4c-0.3-0.2-0.5-0.4-0.5-0.7c-0.1-0.5,0.3-1,0.7-1.6
				c0.5-0.6,0.4-6.4-0.1-9.4c-0.2-1.1-0.3-1.3-0.3-1.4l0,0c-0.6,0-1.4,0-2.2,0c-0.6,0-1.2,0-1.7,0c-0.2,0-0.3,0.1-0.4,0.2
				c-0.1,0.1-0.3,0.2-0.6-0.1c-0.6-0.6-0.7-1,0-1.7c0.3-0.3,0.9-0.4,2.1-0.4c0.5,0,1.1,0,1.6,0c0.6,0,1.1,0,1.4,0c0.7,0,1.3,0,2,0
				c0.8,0,1.7,0,2.5-0.1c0.3,0,0.4,0,0.6,0c0.1,0,0.2,0,0.5,0c0.7,0,1.5,0.5,1.5,1c0,0.1,0,0.3-0.3,0.4c-0.3,0.1-0.7,0.2-1.3,0.1
				c-0.1,0-0.2,0-0.3,0c-1,0-2.4,0.3-2.6,0.6c-0.3,0.4-0.6,2-0.6,2.7c0.1,0.9,0.3,1.9,0.5,2.8c0.2,0.6,0.3,1.2,0.4,1.8
				c0.2,0.9,0.2,1.9,0.2,2.9c0,0.3,0.1,0.6,0.1,0.9c0.1,0.6,0.2,1.1-0.4,1.5C80.7,113.7,80.2,114,79.6,114z M78.2,100.3
				c0.1,0,0.2,0.2,0.2,0.2c0.6,1.2,1.1,10.1,0.4,11c-0.4,0.5-0.8,1-0.7,1.4c0,0.2,0.2,0.4,0.4,0.5c0.4,0.2,0.7,0.4,1.1,0.4
				c0.5,0,1-0.3,1.6-0.6c0.4-0.4,0.4-0.7,0.3-1.3c0-0.3-0.1-0.6-0.1-0.9c0-1-0.1-2-0.2-2.9c-0.1-0.6-0.3-1.2-0.4-1.8
				c-0.2-0.9-0.5-1.9-0.5-2.8c0-0.8,0.4-2.4,0.6-2.8c0.3-0.5,2-0.8,2.8-0.8c0.1,0,0.2,0,0.3,0c0.6,0,1,0,1.2-0.1
				c0.2-0.1,0.2-0.2,0.2-0.2c0-0.3-0.7-0.8-1.3-0.8c-0.3,0-0.4,0-0.6,0c-0.1,0-0.2,0-0.5,0c-0.8,0-1.7,0.1-2.5,0.1c-0.7,0-1.3,0-2,0
				c-0.4,0-0.9,0-1.5,0c-0.5,0-1.1,0-1.6,0c-0.4,0-1.6,0-1.9,0.3c-0.6,0.6-0.5,0.9,0,1.3c0.1,0.1,0.2,0.1,0.2,0.1c0,0,0.1,0,0.1-0.1
				c0.1-0.1,0.3-0.2,0.6-0.2c0.4,0,1,0,1.7,0C76.7,100.2,77.5,100.2,78.2,100.3L78.2,100.3z"/>
		</g>
		<g id="XMLID_797_">
			<path id="XMLID_798_" class="st0" d="M79.8,113.5c-0.2,0-0.4-0.1-0.7-0.4c-0.4-0.4-0.3-0.8-0.1-1.1c0.1-0.2,0.2-0.4,0.3-0.7
				c0.6-2.7,0.1-10.5-0.4-11.1l0,0c-0.2,0-0.6-0.1-1-0.2c-0.7-0.1-1.5-0.3-1.9-0.2c-0.1,0-0.3,0.1-0.5,0.1c-0.4,0.1-0.9,0.2-1.3,0.2
				c-0.3,0-0.5-0.1-0.5-0.2c-0.1-0.2-0.1-0.3-0.1-0.4c0.1-0.3,0.7-0.3,1.2-0.4c0.4,0,1.1,0,1.9,0c0.8,0,1.6,0,2,0c0.4,0,0.8,0,1.1,0
				c0.4,0,0.7,0.1,1.1,0l0.1,0c0.4,0,1.6-0.1,2.5-0.1c0.9,0,1.1,0.1,1.2,0.3c0,0.1,0,0.2,0,0.3c-0.1,0.1-0.4,0.2-0.8,0.2
				c-0.3,0-0.7,0-1.1-0.1c-0.4,0-0.8-0.1-1.2-0.1c-0.2,0-0.4,0-0.6,0c-0.5,0.1-0.9,0.7-0.9,1.2l0,0.3c-0.1,0.6-0.2,1.8-0.1,2.4
				c0,0.9,0.2,1.8,0.3,2.7c0.1,0.6,0.2,1.2,0.2,1.8c0.1,0.9,0.1,1.9,0.1,2.8c0,0.5,0.1,0.8,0.2,1c0.1,0.3,0.2,0.6-0.1,1l-0.1,0.1
				C80.4,113.3,80.2,113.5,79.8,113.5z M79,99.9c0,0,0.1,0,0.2,0.1c0.6,0.7,1,8.7,0.4,11.3c-0.1,0.3-0.2,0.6-0.3,0.8
				c-0.2,0.4-0.3,0.6,0,0.9c0.2,0.2,0.4,0.3,0.5,0.3c0.2,0,0.4-0.2,0.7-0.5l0.1-0.1c0.2-0.3,0.1-0.4,0-0.7c-0.1-0.2-0.2-0.6-0.2-1.1
				c0-1-0.1-1.9-0.1-2.8c-0.1-0.6-0.1-1.1-0.2-1.8c-0.1-0.9-0.3-1.8-0.3-2.7c0-0.6,0.1-1.8,0.1-2.4l0-0.3c0-0.6,0.5-1.3,1.1-1.4
				c0,0,0,0,0,0l0,0c-0.5,0-0.8,0-1.2,0c-0.3,0-0.7-0.1-1.1,0c-0.4,0-1.2,0-2,0c-0.8,0-1.6,0-1.9,0c-0.3,0-0.9,0.1-1,0.2
				c0,0.1,0,0.1,0,0.2c0,0.1,0.2,0.1,0.3,0.1c0.3,0,0.9-0.1,1.2-0.2c0.2-0.1,0.4-0.1,0.5-0.1c0.4,0,1.2,0.1,2,0.2
				C78.3,99.8,78.7,99.9,79,99.9L79,99.9z M81.7,99.4c0.4,0,0.8,0,1.2,0.1c0.4,0,0.8,0.1,1.1,0.1c0.5,0,0.6-0.1,0.6-0.1c0,0,0,0,0,0
				c0,0-0.1-0.1-0.9-0.1C83,99.3,82.1,99.4,81.7,99.4C81.6,99.4,81.6,99.4,81.7,99.4z"/>
		</g>
		<g id="XMLID_793_">
			<path id="XMLID_794_" class="st0" d="M90.1,114.8c-0.6,0-1.3-0.4-1.9-1.1c-1.2-1.4-0.4-14.9-0.4-15.5c0-0.1,0-0.1,0.1-0.1
				c0.9-0.2,1.6,0,2.1,0.6c1.3,1.6,0.9,5.4,0.8,6.3c1.5-0.6,2.7-0.8,3.7-0.8c2.9,0,3.3,2.5,3.5,6c0.1,2-0.1,3.2-0.6,3.7
				c-0.2,0.2-0.5,0.3-0.8,0.3c-0.4,0-0.8-0.2-1.1-0.3c-0.4-0.2-0.3-1-0.1-2.3c0.2-1.4,0.5-3.2,0-4.9c-0.2-0.7-0.6-1.1-1.2-1.1
				c-1.2,0-2.8,1.6-3,1.9c0,0.4-0.1,3.9,0,5.7c0,0.5-0.1,0.9-0.4,1.2C90.6,114.7,90.4,114.8,90.1,114.8z M88,98.3
				c-0.3,4.9-0.6,14.2,0.3,15.3c0.5,0.6,1.2,1,1.7,1c0.2,0,0.4-0.1,0.6-0.2c0.2-0.2,0.3-0.6,0.3-1c0-1.9,0-5.7,0-5.7
				c0,0,0-0.1,0-0.1c0.1-0.1,1.8-2,3.2-2c0.7,0,1.1,0.4,1.4,1.3c0.5,1.7,0.2,3.6,0,5c-0.1,1-0.3,1.8,0,2c0.3,0.1,0.6,0.3,0.9,0.3
				c0.2,0,0.4-0.1,0.6-0.3c0.5-0.5,0.7-1.7,0.5-3.6c-0.2-3.5-0.5-5.8-3.2-5.8c-1,0-2.2,0.3-3.8,0.9c0,0-0.1,0-0.1,0
				c0,0-0.1-0.1,0-0.1c0,0,0.7-4.7-0.7-6.3C89.4,98.4,88.8,98.2,88,98.3z"/>
		</g>
		<g id="XMLID_791_">
			<path id="XMLID_792_" class="st0" d="M89.6,113.8c-0.3,0-0.7-0.2-1-0.6c-1-1.1,0-13.4,0-13.9c0-0.1,0-0.1,0.1-0.1
				c0.3-0.1,0.6,0,0.9,0.2c1.2,1.1,0.7,5.5,0.6,6.5c3.2-1.2,4.9-1.4,6-0.7c0.8,0.5,1.2,1.6,1.3,3.3c0.2,2.7-0.1,4.4-0.8,4.8
				c-0.2,0.1-0.4,0.1-0.6,0c-0.4-0.2-0.3-1.2-0.2-2.7c0.1-1.4,0.3-3.1,0-4.6c0-0.1,0-0.1,0.1-0.1c0.1,0,0.1,0,0.1,0.1
				c0.3,1.5,0.1,3.2,0,4.6c-0.1,1.1-0.2,2.3,0.1,2.4c0.1,0.1,0.3,0.1,0.4,0c0.2-0.1,0.9-0.9,0.7-4.5c-0.1-1.7-0.5-2.7-1.2-3.1
				c-1-0.7-2.8-0.4-5.9,0.7c0,0-0.1,0-0.1,0c0,0-0.1-0.1,0-0.1c0-0.1,0.7-5.4-0.5-6.5c-0.2-0.1-0.3-0.2-0.6-0.2
				c-0.3,3.6-0.8,12.7-0.1,13.6c0.4,0.4,0.7,0.6,1,0.5c0.3-0.1,0.5-0.6,0.5-1.4c0-1.5,0-5.1,0-5.1c0-0.1,0.1-0.1,0.1-0.1
				c0.1,0,0.1,0.1,0.1,0.1c0,0,0,3.5,0,5.1c0,0.9-0.2,1.5-0.6,1.6C89.8,113.8,89.7,113.8,89.6,113.8z"/>
		</g>
		<g id="XMLID_787_">
			<path id="XMLID_788_" class="st0" d="M89.9,113c-0.1,0-0.1-0.1-0.2-0.2c-0.1-0.1-0.3-0.4-0.5-0.7c-0.9-1.1-0.1-10.7,0-11.8
				c0,0,0-0.1,0.1-0.1c0,0,0.1,0,0.1,0c0.7,0.3,0.4,4.9,0.2,6.5c0,0,0,0,0,0c0.2-0.1,3.8-2.1,5.9-1.1c0.7,0.3,1.2,1,1.4,1.9
				c0.3,1.4,0,2.6-0.3,3.5c-0.2,0.6-0.3,1.1-0.1,1.2c0.1,0,0.1,0.1,0.1,0.2c0,0.1-0.1,0.1-0.2,0.1c-0.4-0.2-0.2-0.7,0-1.5
				c0.2-0.9,0.5-2,0.3-3.3c-0.2-0.8-0.6-1.4-1.2-1.7c-1.9-0.9-5.1,0.8-5.6,1.1c0,0.5,0.1,3.6,0.1,4.9c0,0.4,0,0.7,0.1,0.9
				C90,112.9,90,113,89.9,113C89.9,113,89.9,113,89.9,113z M89.4,100.7c-0.3,3.2-0.8,10.5-0.1,11.3c0.2,0.2,0.3,0.4,0.4,0.5
				c0-0.2,0-0.4,0-0.7c0-1.3-0.1-4.4-0.1-4.9c0,0-0.1,0.1-0.1,0.1c-0.1,0-0.1-0.1-0.1-0.1C89.6,104.3,89.6,101.6,89.4,100.7z"/>
		</g>
		<g id="XMLID_783_">
			<path id="XMLID_784_" class="st0" d="M105.6,114.8c-2.1,0-3.7-1.4-4-1.9c-0.5-0.4-1.4-2.3-1.2-4.3c0.2-1.3,0.9-2.9,3.4-3.8
				c0.8-0.2,1.5-0.4,2.1-0.4c2.9,0,3.6,2.6,4,3.8c0.1,0.2,0.1,0.4,0.1,0.5c0,0.1,0,0.2,0,0.3c-0.3,0.4-2.2,0.6-5.8,0.6
				c-0.5,0-0.9,0-1,0c-0.3,0.5-0.3,0.9-0.1,1.3c0.4,0.8,2,1.1,3.3,1.1c0.7,0,1.4-0.1,1.8-0.3c0.8-0.3,1.4-0.3,1.6,0
				c0.2,0.2,0.1,0.5,0.1,0.5l0,0.1C108.6,114,107.2,114.8,105.6,114.8z M105.8,104.7c-0.6,0-1.3,0.1-2,0.4c-1.9,0.6-3,1.8-3.2,3.5
				c-0.3,2,0.7,3.9,1.1,4.1l0,0l0,0c0.2,0.4,1.8,1.8,3.8,1.8c1.5,0,2.9-0.8,4.1-2.3c0-0.1,0-0.2-0.1-0.3c-0.2-0.2-0.6-0.2-1.3,0.1
				c-0.5,0.2-1.1,0.3-1.9,0.3c-1.3,0-3-0.3-3.6-1.3c-0.3-0.5-0.2-1,0.2-1.6l0-0.1l0.1,0c0,0,0.4,0,1.1,0c3.9,0,5.4-0.3,5.6-0.5
				c0-0.1-0.1-0.3-0.2-0.5C109.3,107.2,108.6,104.7,105.8,104.7z"/>
		</g>
		<g id="XMLID_779_">
			<path id="XMLID_780_" class="st0" d="M105.4,114.3c-1.8,0-3.1-1.3-3.4-1.9c-0.5-0.3-1.2-2-1.1-3.7c0.1-1,0.6-2.4,2.3-3.1
				c1-0.4,2-0.6,2.7-0.6c2.4,0,3.1,2.1,3.2,3.3c0,0.1,0,0.2-0.1,0.3c-0.3,0.3-1,0.4-2.2,0.4c-1.7,0-3.8-0.3-4.3-0.3
				c-0.5,0.8-0.5,1.6-0.1,2.3c0.6,1,2,1.7,3.5,1.7c0.2,0,0.4,0,0.7,0c1.8-0.2,2.5-0.9,2.5-0.9c0,0,0.1,0,0.2,0c0,0,0.1,0.1,0,0.2
				C108.1,113.5,106.8,114.3,105.4,114.3z M106,105.3c-0.8,0-1.6,0.2-2.7,0.6c-1.6,0.7-2,1.9-2.1,2.9c-0.1,1.6,0.6,3.2,1,3.5
				c0,0,0,0,0,0c0.2,0.5,1.5,1.8,3.2,1.8c1.1,0,2.2-0.6,3.2-1.7c-0.4,0.2-1,0.4-1.9,0.5c-0.2,0-0.5,0-0.7,0c-1.6,0-3.2-0.7-3.8-1.8
				c-0.3-0.6-0.5-1.5,0.2-2.6c0,0,0.1-0.1,0.1-0.1c0,0,2.4,0.4,4.3,0.4c1.4,0,1.8-0.2,2-0.3c0,0,0.1-0.1,0.1-0.1
				C108.9,108,108.7,105.3,106,105.3z"/>
		</g>
		<g id="XMLID_777_">
			<path id="XMLID_778_" class="st0" d="M105.4,113.5c-0.9,0-1.7-0.2-2.3-0.7c-1.3-0.9-1.5-2.6-1.5-3.4c0-0.1,0-0.2,0-0.2
				c-0.2-1.3,1.3-2.8,3.1-3.3c1.8-0.5,3.4,0.3,4.1,2.1c0,0.1,0,0.1-0.1,0.2c-0.1,0-0.1,0-0.2-0.1c-1-2.4-3-2.1-3.8-1.9
				c-1.7,0.5-3,1.9-2.9,3.1c0,0.1,0,0.1,0,0.2c0.1,0.8,0.2,2.3,1.4,3.2c0.9,0.6,2.1,0.8,3.7,0.5c0.1,0,0.1,0,0.1,0.1
				c0,0.1,0,0.1-0.1,0.1C106.4,113.5,105.9,113.5,105.4,113.5z"/>
		</g>
		<g id="XMLID_773_">
			<path id="XMLID_774_" class="st0" d="M105.9,108.2c-1.1,0-2.5-0.2-2.5-0.2l-0.2,0l0.2-0.2c0-0.1,1.2-1.3,2.4-1.3
				c0.5,0,1,0.2,1.4,0.5c0.3,0.3,0.4,0.5,0.3,0.7C107.4,108.1,106.9,108.2,105.9,108.2z M103.7,107.8c0.4,0.1,1.4,0.2,2.2,0.2
				c1.1,0,1.3-0.2,1.3-0.3c0-0.1-0.1-0.2-0.3-0.4c-0.4-0.3-0.8-0.5-1.2-0.5C104.9,106.8,104,107.5,103.7,107.8z"/>
		</g>
	</g>
</g>
</svg>
